<?xml version='1.0' encoding='utf-8'?>
<svg xmlns="http://www.w3.org/2000/svg" viewBox="0 0 1000 1000"> <path transform="scale(.97656)" d="m0 0h1024v1024h-1024v-1024z" fill="#FFF2E2"/> <path transform="scale(.97656)" d="m734.22 176.83c3.935 3.862 4.847 6.308 9.976 9.587-4.059 2.936-6.502 6.18-9.358 10.251-3.063-4.161-5.955-7.597-10.273-10.489 4.242-2.639 6.941-5.201 9.655-9.349z" fill="#B52338"/> <path transform="scale(.97656)" d="m425.56 110.05c1.501-0.092 3.205-0.307 4.662 0.143 2.117 0.654 4.083 2.366 5.094 4.323 1.009 1.951 1.194 4.183 0.396 6.245-0.983 2.537-3.088 4.143-5.504 5.196-1.111 0.21-2.058 0.353-3.187 0.179-2.247-0.347-4.361-1.571-5.593-3.513-1.231-1.941-1.429-4.371-0.95-6.58 0.659-3.034 2.575-4.423 5.082-5.993z" fill="#FDC78A"/> <path transform="scale(.97656)" d="m248.25 190.53c1.268 0.16 2.562 0.41 3.766 0.853 2.307 0.848 4.233 2.812 5.084 5.107q0.138 0.381 0.235 0.775t0.152 0.795q0.055 0.402 0.068 0.807 0.012 0.406-0.019 0.81-0.03 0.404-0.104 0.803-0.073 0.399-0.188 0.788-0.114 0.389-0.27 0.763-0.155 0.375-0.349 0.731c-1.507 2.748-3.937 3.863-6.833 4.642-1.13-0.147-2.317-0.277-3.391-0.676-2.125-0.789-3.987-2.46-4.941-4.52-0.968-2.092-0.877-4.469 0.057-6.556 1.353-3.022 3.762-4.102 6.733-5.122z" fill="#440D31"/> <path transform="scale(.97656)" d="m805.83 221.81c1.425 1.341 2.496 3.324 3.823 4.815 3.428 3.854 7.261 6.7 11.516 9.568-6.337 4.146-10.543 8.012-14.656 14.431-1.663-0.553-4.572-6.024-6.153-7.731-2.655-2.865-5.87-4.704-9.159-6.76 6.321-4.206 10.343-8.019 14.629-14.323z" fill="#93192F"/> <path transform="scale(.97656)" d="m209.67 340.32c1.809 1.922 3.124 4.523 4.66 6.687 3.721 5.24 8.246 7.808 13.583 11.127-8.519 4.44-12.704 9.233-17.867 17.209-2.823-1.852-4.208-6.664-6.64-9.232-3.129-3.305-7.806-5.742-11.592-8.25 9.475-4.785 12.611-8.697 17.856-17.541z" fill="#93192F"/> <path transform="scale(.97656)" d="m278.02 394.96q2.624 17.702 4.733 35.473c-4.284 2.87-22.092 23.9-27.367 29.681q-45.989 51.122-93.185 101.13-8.592 9.154-16.923 18.545c-4.063 4.567-8.349 10.296-13.2 13.982 1.67-3.129 4.339-5.763 6.469-8.599l14.727-19.882q49.652-68.729 100.11-136.87c5.12-6.902 19.761-29.344 24.632-33.464z" fill="#FDC78A"/> <path transform="scale(.97656)" d="m459.11 185.12c1.385-4.59 32.999-45.64 38.279-52.83 12.406-16.89 24.259-34.58 37.393-50.888 2.451-3.0436 5.35-6.7159 8.873-8.528q0.495-0.2545 1.002-0.4827 0.508-0.2282 1.026-0.4295 0.519-0.2013 1.048-0.3752 0.528-0.1739 1.065-0.3198 0.537-0.146 1.081-0.2636t1.093-0.2066q0.549-0.0889 1.102-0.149t1.109-0.0911 1.112-0.0329 1.112 0.0254 1.109 0.0836q0.554 0.0564 1.104 0.1417 0.55 0.0852 1.094 0.1992 0.545 0.1139 1.083 0.2562 0.537 0.1424 1.067 0.3127t1.05 0.3681c5.485 2.0281 9.804 6.41 12.126 11.743 2.022 4.6429 2.637 10.143 1.107 15.02-2.881 9.1798-39.565 55.435-47.732 65.979-3.347 4.321-10.535 12.083-12.274 17.089-0.081 0.234-0.151 0.472-0.226 0.707-18.699 0.106-36.215 1.428-54.803 2.672z" fill="#FDC78A"/> <path transform="scale(.97656)" d="m526.81 938.01c3.801-0.831 7.893-0.898 11.771-1.329q10.707-1.094 21.249-3.259c48.132-10.186 79.25-30.676 115.65-62.537l2.861 1.097c14.242 3.839 48.498 12.478 55.879 25.688 1.158 2.071 1.437 4.295 0.778 6.578-1.94 6.733-9.326 11.047-15.178 14.069-38.343 19.803-136.27 27.52-182.13 28.678l-4.145-0.333c2.331-0.466 4.836-0.368 7.209-0.429-0.052-2.663 1.005-6.108-0.575-8.408-0.819-0.436-11.195 0.302-13.368 0.185z" fill="#A35F54"/> <path transform="scale(.97656)" d="m346.51 872.22c10.307 9.609 20.769 18.852 32.381 26.876q1.898 1.286 3.822 2.533 1.923 1.248 3.871 2.457t3.919 2.379q1.972 1.17 3.967 2.3 1.994 1.13 4.011 2.221 2.017 1.09 4.055 2.14 2.038 1.049 4.096 2.058 2.059 1.009 4.137 1.977 2.079 0.968 4.176 1.894t4.212 1.81q2.116 0.884 4.248 1.726 2.133 0.841 4.281 1.64 2.149 0.799 4.314 1.555 2.164 0.756 4.343 1.469 2.179 0.712 4.372 1.381t4.398 1.294q2.206 0.625 4.424 1.206t4.447 1.118q2.229 0.536 4.468 1.028t4.487 0.94q2.249 0.447 4.506 0.849t4.521 0.76q2.265 0.357 4.536 0.669 2.272 0.312 4.549 0.578 2.277 0.267 4.558 0.488 2.282 0.221 4.568 0.397 2.286 0.175 4.575 0.305t4.58 0.214 4.583 0.123q2.292 0.038 4.585 0.031t4.585-0.06 4.582-0.152q4.571-0.172 9.139-0.415c2.173 0.117 12.549-0.621 13.368-0.185 1.58 2.3 0.523 5.745 0.575 8.408-2.373 0.061-4.878-0.037-7.209 0.429l4.145 0.333c-7.82 1.684-26.129 0.603-35.271 0.558-53.416-0.26-156.52-5.111-203.11-29.215-5.489-2.84-12.559-7.032-14.324-13.357-0.764-2.738-0.323-5.183 1.171-7.579 7.257-11.636 31.962-18.937 45.038-22.081 5.078-1.22 10.249-1.888 15.318-3.1z" fill="#CCAC9F"/> <path transform="scale(.97656)" d="m702.79 700.09c7.689-4.513 14.807-10.266 22.085-15.414l42.248-29.535q44.573-30.449 88.555-61.746c16.879-11.833 34.11-23.279 50.558-35.704l-162.54 226.99-36.132 50.204c-9.056 12.619-17.76 26.504-29.224 37.098l-2.861-1.097c2.229-2.721 3.239-4.998 4.022-8.397 1.765-7.666 2.505-15.683 3.589-23.476l5.006-35.105c4.879-34.595 10.157-69.181 14.689-103.82z" fill="#FDC78A"/> <path transform="scale(.97656)" d="m737.83 438.98c0.178-0.053 0.36-0.091 0.533-0.158 3.378-1.316 15.4-10.865 19.481-13.79l74.214-53.596c7.959-5.705 18.09-15.359 26.957-18.807 5.331-2.073 11.358-1.746 16.635 0.332q0.593 0.229 1.173 0.489 0.581 0.259 1.147 0.548 0.566 0.288 1.117 0.606 0.55 0.317 1.084 0.662t1.049 0.718q0.516 0.372 1.011 0.77 0.496 0.398 0.97 0.821 0.475 0.423 0.927 0.87 0.452 0.446 0.881 0.916 0.428 0.469 0.832 0.96t0.783 1.001q0.378 0.511 0.73 1.041 0.351 0.529 0.675 1.076t0.62 1.11q0.295 0.563 0.561 1.14 0.267 0.577 0.503 1.167c2.589 6.644 2.114 13.409-0.852 19.811-1.433 3.094-3.293 5.99-5.185 8.818-5.334 7.97-11.183 15.611-16.611 23.523q-49.627 71.952-100.45 143.06-16.317 23.253-32.94 46.287c-4.99 7.046-16.372 25.681-22.404 30.297 0.715-9.691 2.554-19.514 3.802-29.162l10.182-75.334 7.731-58.179c1.519-12.21 2.299-24.994 4.846-36.999z" fill="#FDC78A"/> <path transform="scale(.97656)" d="m288.22 471.68 16.052 122.01 10.93 80.961c1.709 12.673 3.738 25.338 5.22 38.037-9.917 5.658-19.08 13.545-28.249 20.356l-35.729 26.056c-8.579 6.281-17.047 12.888-25.914 18.747-16.909 11.175-37.054 15.458-57.022 11.277q-1.761-0.363-3.501-0.814-1.74-0.45-3.456-0.987-1.716-0.536-3.403-1.157-1.687-0.622-3.341-1.326-1.654-0.705-3.271-1.491-1.617-0.785-3.193-1.651-1.575-0.865-3.106-1.808t-3.013-1.96q-1.482-1.018-2.911-2.108-1.429-1.091-2.803-2.251-1.373-1.16-2.687-2.387t-2.566-2.517q-1.251-1.291-2.436-2.643-1.186-1.351-2.303-2.76-1.116-1.409-2.162-2.871-1.045-1.463-2.016-2.976c-10.297-16.068-14.383-36.622-10.176-55.314 1.783-7.922 4.994-16.255 9.444-23.073 8.898-13.635 20.206-26.23 30.169-39.153l93.751-120.99c5-6.431 33.559-44.611 37.692-47.199z" fill="#FDC78A"/> <path transform="scale(.97656)" d="m555.95 184.49q1.965-17.551 3.747-35.122c0.544-5.235 0.614-10.992 1.881-16.084 0.701-2.822 1.302-5.011 3.686-6.837 7.518-5.758 30.088-14.136 39.699-18.405l36.859-16.25c7.006-3.0476 14.044-6.5008 21.335-8.7939 3.158-0.9932 6.115-1.1308 9.38-0.6129 5.837 0.9256 11.367 4.0569 14.772 8.9506 2.668 3.8341 12.867 25.506 13.931 29.99 0.611 2.573 0.517 5.373 0.023 7.959q-0.102 0.53-0.231 1.055-0.129 0.524-0.284 1.041-0.156 0.518-0.337 1.026-0.181 0.509-0.387 1.008-0.207 0.499-0.438 0.987-0.232 0.488-0.487 0.964-0.256 0.475-0.535 0.938-0.279 0.462-0.582 0.909-0.302 0.448-0.626 0.88-0.325 0.432-0.67 0.846-0.346 0.415-0.712 0.812t-0.752 0.775-0.79 0.736-0.826 0.696q-0.422 0.337-0.86 0.652-0.438 0.316-0.892 0.609c-5.003 3.301-11.23 5.333-16.743 7.641q-14.404 6.132-28.707 12.497c-8.721 3.803-19.111 7.195-26.65 13.021-0.884 5.79-1.566 11.601-2.414 17.393 43.628 9.637 104.89 27.914 130.25 67.792 4.95 7.785 8.414 16.338 9.187 25.588 1.031 12.317-2.806 30.873-4.531 43.499l-8.501 63.713c-2.068 14.764-4.791 29.752-5.914 44.616-2.547 12.005-3.327 24.789-4.846 36.999l-7.731 58.179-10.182 75.334c-1.248 9.648-3.087 19.471-3.802 29.162-1.585 7.528-2.328 15.362-3.351 22.992l-5.132 38.44c-4.532 34.636-9.81 69.222-14.689 103.82l-5.006 35.105c-1.084 7.793-1.824 15.81-3.589 23.476-0.783 3.399-1.793 5.676-4.022 8.397-36.402 31.861-67.52 52.351-115.65 62.537q-10.542 2.165-21.249 3.259c-3.878 0.431-7.97 0.498-11.771 1.329q-4.568 0.243-9.139 0.415-2.29 0.099-4.582 0.152t-4.585 0.06-4.585-0.031q-2.292-0.039-4.583-0.123t-4.58-0.214-4.575-0.305q-2.286-0.176-4.568-0.397-2.281-0.221-4.558-0.488-2.277-0.266-4.549-0.578-2.271-0.312-4.536-0.669-2.264-0.357-4.521-0.76-2.257-0.402-4.506-0.849-2.248-0.448-4.487-0.94t-4.468-1.028q-2.229-0.537-4.447-1.118t-4.424-1.206q-2.205-0.625-4.398-1.294t-4.372-1.381q-2.179-0.713-4.343-1.469-2.165-0.756-4.314-1.555-2.148-0.799-4.281-1.64-2.132-0.842-4.248-1.726-2.115-0.884-4.212-1.81t-4.176-1.894q-2.078-0.967-4.137-1.976-2.058-1.009-4.096-2.059t-4.055-2.14q-2.017-1.091-4.011-2.221-1.995-1.13-3.967-2.3-1.971-1.17-3.919-2.379t-3.871-2.457q-1.924-1.247-3.822-2.533c-11.612-8.024-22.074-17.267-32.381-26.876l-4.86-4.64q-11.04-77.385-21.226-154.89c-1.482-12.699-3.511-25.364-5.22-38.037l-10.93-80.961-16.052-122.01-5.475-41.248q-2.109-17.771-4.733-35.473c-1.727-11.984-2.975-24.042-4.559-36.046l-6.416-46.452c-3.052-23.438-5.803-36.392 9.849-56.526 26.816-34.498 88.364-54.35 129.63-62.843 17.51-3.604 34.899-5.703 52.597-7.976 18.588-1.244 36.104-2.566 54.803-2.672 14.036 0.053 28.082 0.336 42.032 2.044z" fill="#440D31"/> <path transform="scale(.97656)" d="m350.3 797.38 0.493-0.934c0.688 3.309 0.531 6.639 1.058 9.944 0.216 1.358 0.461 1.933 1.558 2.733 2.9-0.361 11.029-0.566 12.77-2.731-0.523-3.204-1.549-8.576-0.973-11.768 0.05-0.278 0.113-0.553 0.169-0.83 1.437 8.387 2.328 16.858 3.749 25.241 2.498 19.049 6.1 38.144 7.525 57.301-6.583-5.251-12.608-11.042-18.594-16.952-1.707-20.675-5.407-41.363-7.755-62.004z" fill="#FFF2E2"/> <path transform="scale(.97656)" d="m285.9 316.01c5.741 7.484 13.993 13.196 21.64 18.615 0.123 5.171 1.449 28.785 2.742 31.713 1.163 9.415 3.706 23.044 3.286 32.27-4.946-1.835-11.664-7.456-17.927-10.105-4.387-23.933-6.238-48.409-9.741-72.493z" fill="#FFF2E2"/> <path transform="scale(.97656)" d="m307.54 334.62c15.32 9.464 33.596 19.624 51.348 23.486 0.154 11.289 1.758 22.555 3.141 33.744-17.996-6.897-33.322-14.909-49.794-24.835l-1.361-1.251-0.592 0.569c-1.293-2.928-2.619-26.542-2.742-31.713z" fill="#FDC78A"/> <path transform="scale(.97656)" d="m369.12 819.03c8.548 6.508 17.264 13.024 26.611 18.351 5.642 3.216 11.569 5.732 17.298 8.743 1.544 18.533 4.84 37.323 5.045 55.904-14.853-7.087-28.917-14.865-41.429-25.697-1.425-19.157-5.027-38.252-7.525-57.301z" fill="#89C3BD"/> <path transform="scale(.97656)" d="m289.36 310.12c-4.531-6.648-7.361-14.497-6.771-22.639 0.916-12.638 10.792-24.966 19.912-33.011 13.614-12.008 30.552-20.331 47.253-27.111 50.64-20.56 108.8-27.852 163.21-27.308 13.892 0.139 27.715 1.127 41.569 2.041l-0.668 6.452c-8.96-0.194-17.87-1.599-26.834-1.67q-13.655-0.11-27.297 0.503t-27.232 1.947-27.091 3.386q-13.5 2.051-26.873 4.815c-7.36 1.536-15.688 2.826-22.671 5.623-7.485 1.752-14.806 4.333-22.111 6.716-27.757 9.055-62.723 22.293-78.791 48.16-4.734 7.621-6.708 15.577-6.245 24.528 0.129 2.508 0.621 5.079 0.64 7.568z" fill="#FFF2E2"/> <path transform="scale(.97656)" d="m395.86 223.15c0.152 6e-3 0.305 0.014 0.457 0.016 5.609 0.085 18.046-6.042 22.242-2.649l0.158 0.797c-2.312-0.097-4.395-0.319-6.608 0.445-4.313 1.489-10.967 0.499-14.257 3.858-20.422 7.178-35.516 17.864-45.063 37.997-2.548 5.37-4.228 10.871-5.443 16.676l-0.395 2.663-0.47 0.243c-5.289 2.685-11.011 4.66-16.473 6.976-13.635 5.782-27.653 13.266-37.829 24.21-0.935-1.358-2.112-2.778-2.826-4.26-0.019-2.489-0.511-5.06-0.64-7.568-0.463-8.951 1.511-16.907 6.245-24.528 16.068-25.867 51.034-39.105 78.791-48.16 7.305-2.383 14.626-4.964 22.111-6.716z" fill="#199493"/> <path transform="scale(.97656)" d="m310.29 366.34 0.592-0.569 1.361 1.251c16.472 9.926 31.798 17.938 49.794 24.835 1.219 9.793 2.672 19.614 3.568 29.44q1.891 17.942 4.158 35.84c-0.143 0.075-0.277 0.173-0.43 0.226-4.083 1.406-35.636-13.806-41.281-17.161-3.235-11.805-5.052-25.076-6.356-37.259l-3.191-1.847q-2.487-1.198-4.929-2.486c0.42-9.226-2.123-22.855-3.286-32.27z" fill="#FE9B40"/> <path transform="scale(.97656)" d="m310.29 366.34 0.592-0.569 1.361 1.251c2.221 11.303 4.507 22.693 6.262 34.074q-2.487-1.198-4.929-2.486c0.42-9.226-2.123-22.855-3.286-32.27z" fill="#FA8F65"/> <path transform="scale(.97656)" d="m321.69 402.94c14.434 7.512 28.214 13.887 43.909 18.354q1.891 17.942 4.158 35.84c-0.143 0.075-0.277 0.173-0.43 0.226-4.083 1.406-35.636-13.806-41.281-17.161-3.235-11.805-5.052-25.076-6.356-37.259z" fill="#6B0A25"/> <path transform="scale(.97656)" d="m614.74 210.07c17.606 4.14 35.975 8.414 52.64 15.528-1.767 5.648-1.583 13.189-2.214 19.17-1.3 12.326-3.456 25.204-3.732 37.565-17.768-5.202-35.392-9.587-53.706-12.355 2.121-19.987 4.653-39.946 7.012-59.908z" fill="#166969"/> <path transform="scale(.97656)" d="m557.57 309.64c1.264-8.562 2.028-17.271 3.122-25.868l11.547-96.349 3.177-26.564c0.725-6.083 1.081-12.618 2.904-18.477 1.153-3.708 4.009-5.657 7.368-7.306 3.206-1.574 6.602-2.764 9.865-4.216l36.701-16.301c10.425-4.631 24.554-12.015 35.055-15.206 1.217-0.3698 1.899-0.2735 3.061 0.1814 3.94 1.5416 5.284 6.2286 6.745 9.8016-13.477 7.492-28.031 13.207-42.182 19.305-14.546 6.268-28.923 12.872-43.779 18.4-1.195 18.837-4.523 39.624-6.96 58.551-2.944 22.875-5.378 45.786-8.048 68.69-1.434 12.302-3.785 24.928-4.29 37.291-4.787-0.254-9.663-0.587-14.286-1.933z" fill="#FFF2E2"/> <path transform="scale(.97656)" d="m661.43 282.34c0.276-12.361 2.432-25.239 3.732-37.565 0.631-5.981 0.447-13.522 2.214-19.17 24.299 10.171 59.094 26.224 69.767 51.837 3.571 8.569 2.928 17.616-0.626 26.054-1.803 4.282-4.3 8.468-7.26 12.052-7.915-7.614-16.737-13.079-26.652-17.722-6.754-5.168-32.217-12.978-41.175-15.486z" fill="#89C3BD"/> <path transform="scale(.97656)" d="m591.15 147.04c14.856-5.528 29.233-12.132 43.779-18.4 14.151-6.098 28.705-11.813 42.182-19.305 1.486 3.133 8.277 13.958 7.57 16.966-5.6 8.119-61.478 25.117-74.414 35.505-2.646 2.125-4.257 4.089-5.412 7.282-3.471 9.6-4.527 27.259-5.923 38.07l-8.391 67.891c-1.54 12.344-2.826 24.789-4.967 37.041-3.998 0.124-10.008 0.892-13.722-0.518 0.505-12.363 2.856-24.989 4.29-37.291 2.67-22.904 5.104-45.815 8.048-68.69 2.437-18.927 5.765-39.714 6.96-58.551z" fill="#CC395A"/> <path transform="scale(.97656)" d="m485.34 267.05-0.144-2.798c3.956-0.894 8.597-0.67 12.668-0.82q24.723-1.105 49.367 1.152c-0.741 8.296-1.988 16.566-3.086 24.822-0.486 3.648-1.363 7.603-1.334 11.266 0.01 1.263 0.245 2.033 1.009 3.052 2.749 3.666 9.522 4.858 13.753 5.912 4.623 1.346 9.499 1.679 14.286 1.933 3.714 1.41 9.724 0.642 13.722 0.518 4.816-0.146 11.953-0.892 15.765-4.066 1.123-0.934 1.614-1.932 2.007-3.305 2.138-7.47 3.338-25.84 4.378-34.736 18.314 2.768 35.938 7.153 53.706 12.355 8.958 2.508 34.421 10.318 41.175 15.486-12.785-2.749-61.766 9.808-78.434 13.142q-11.573 2.351-23.324 3.522c-26.727 2.506-53.138-2.353-79.249-7.59-8.129-1.63-16.462-3.865-24.661-4.959l-0.406-0.1c-0.817-6.614-1.915-12.911-4.148-19.209l-0.404 0.161c-1.556-2.918-5.497-12.446-6.646-15.738z" fill="#AD4C35"/> <path transform="scale(.97656)" d="m395.86 223.15c6.983-2.797 15.311-4.087 22.671-5.623q13.373-2.764 26.873-4.815 13.501-2.052 27.091-3.386t27.232-1.947 27.297-0.503c8.964 0.071 17.874 1.476 26.834 1.67-1.681 17.267-4.479 34.406-6.046 51.685-20.732-3.215-41.984-1.954-62.833-1.143-9.476-11.822-19.618-22.89-33.82-29.033-1.994-0.862-4.548-2.151-6.701-2.422-0.146-0.019-0.295-0.015-0.442-0.022-3.163-1.838-7.584-2.752-11.142-3.428-12.704-2.413-22.526-1.547-35.022 1.434 3.29-3.359 9.944-2.369 14.257-3.858 2.213-0.764 4.296-0.542 6.608-0.445l-0.158-0.797c-4.196-3.393-16.633 2.734-22.242 2.649-0.152-2e-3 -0.305-0.01-0.457-0.016z" fill="#89C3BD"/> <path transform="scale(.97656)" d="m295.65 388.5c6.263 2.649 12.981 8.27 17.927 10.105-0.355 9.07 1.505 18.906 2.545 27.931l6.352 53.132q6.175 48.986 13.353 97.835l19.894 148.03q3 22.699 6.322 45.353c0.861 5.679 3.676 17.975 3.333 22.901-0.056 0.277-0.119 0.552-0.169 0.83-0.576 3.192 0.45 8.564 0.973 11.768-1.741 2.165-9.87 2.37-12.77 2.731-1.097-0.8-1.342-1.375-1.558-2.733-0.527-3.305-0.37-6.635-1.058-9.944l-0.493 0.934c-1.448-3.388-2.109-14.219-2.644-18.456q-2.523-20.682-5.442-41.312-24.314-174.42-46.565-349.11z" fill="#89C3BD"/> <path transform="scale(.97656)" d="m397.85 225.62c12.496-2.981 22.318-3.847 35.022-1.434 3.558 0.676 7.979 1.59 11.142 3.428q3.546 2.019 7.139 3.951c15.216 10.305 24.305 19.987 34.179 35.489 1.149 3.292 5.09 12.82 6.646 15.738l-0.097 0.931c-14.077 4.161-28.261 7.813-42.294 12.175-6.014 1.869-12.29 3.605-18.033 6.195-7.23-1.052-14.398-2.619-21.6-3.865-1.091-0.46-1.874-1.003-2.816-1.701l-0.645 0.473c-3.434-0.094-51.398-15.524-56.528-17.625l-2.621 0.918c1.215-5.805 2.895-11.306 5.443-16.676 9.547-20.133 24.641-30.819 45.063-37.997z" fill="#FFF2E2"/> <path transform="scale(.97656)" d="m397.85 225.62c12.496-2.981 22.318-3.847 35.022-1.434 3.558 0.676 7.979 1.59 11.142 3.428q3.546 2.019 7.139 3.951l-1.461 1.097c-0.546-1.044-0.686-1.398-1.94-1.725-0.137-0.036-1.651-0.16-1.704-0.165-4.152-0.379-9.366-3.043-13.852-3.995-13.745-2.916-27.067-1.709-40.199 3.378-2.913 1.129-6.473 2.532-8.963 4.438-14.983 10.087-29.101 25.197-32.763 43.475-0.066 0.328-0.112 0.661-0.188 0.987-0.026 0.111-0.079 0.214-0.118 0.32l-2.621 0.918c1.215-5.805 2.895-11.306 5.443-16.676 9.547-20.133 24.641-30.819 45.063-37.997z" fill="#FA8F65"/> <path transform="scale(.97656)" d="m451.16 231.56c15.216 10.305 24.305 19.987 34.179 35.489 1.149 3.292 5.09 12.82 6.646 15.738l-0.097 0.931c-14.077 4.161-28.261 7.813-42.294 12.175-6.014 1.869-12.29 3.605-18.033 6.195-7.23-1.052-14.398-2.619-21.6-3.865-1.091-0.46-1.874-1.003-2.816-1.701 1.602-3.741 3.769-7.225 5.817-10.734 11.876-17.865 23.631-36.13 36.737-53.131l1.461-1.097z" fill="#FE9B40"/> <path transform="scale(.97656)" d="m720.19 332.56c5.563-4.221 11.039-8.977 16.816-12.862-2.933 28.318-7.818 56.589-11.471 84.846l-33.064 246.7q-7.09 55.512-15.079 110.9l-3.943 28.674c-0.579 4.171-0.846 9.588-2.2 13.535-2.719 17.794-4.712 35.728-7.532 53.488-3.27 4.04-7.516 7.58-11.372 11.069-18.063 16.211-40.93 30.754-63.907 38.802 0.376-7.985 1.517-16.068 2.427-24.014q1.916-17.336 4.209-34.627c17.835-5.658 49.466-19.621 62.134-32.992-0.121-7.281 1.227-14.823 2.205-22.018l3.998-29.036 12.13-88.976 37.114-284.65c1.885-8.869 2.341-18.694 3.472-27.737 1.266-10.382 2.902-20.715 4.063-31.113z" fill="#166969"/> <path transform="scale(.97656)" d="m657.82 816.41q6.153-6.12 12.437-12.105l0.992 0.055c-2.719 17.794-4.712 35.728-7.532 53.488-3.27 4.04-7.516 7.58-11.372 11.069 0.416-7.266 1.737-14.624 2.5-21.881 1.072-10.193 1.707-20.46 2.975-30.626z" fill="#199493"/> <path transform="scale(.97656)" d="m313.57 398.61q2.442 1.288 4.929 2.486l3.191 1.847c1.304 12.183 3.121 25.454 6.356 37.259 5.645 3.355 37.198 18.567 41.281 17.161 0.153-0.053 0.287-0.151 0.43-0.226 2.426 15.666 3.645 31.64 5.161 47.418q2.709 27.553 5.842 55.062l28.973 254.32c0.701 6.035 1.481 12.071 1.902 18.134 0.562 4.676 0.82 9.385 1.392 14.055-5.729-3.011-11.656-5.527-17.298-8.743-9.347-5.327-18.063-11.843-26.611-18.351-1.421-8.383-2.312-16.854-3.749-25.241 0.343-4.926-2.472-17.222-3.333-22.901q-3.323-22.654-6.322-45.353l-19.894-148.03q-7.178-48.849-13.353-97.835l-6.352-53.132c-1.04-9.025-2.9-18.861-2.545-27.931z" fill="#E76880"/> <path transform="scale(.97656)" d="m313.57 398.61q2.442 1.288 4.929 2.486l3.191 1.847c1.304 12.183 3.121 25.454 6.356 37.259l33.565 234.74q6.914 51.207 14.751 102.28c0.918 6.061 2.707 24.571 4.693 29.187 9.379 4.393 18.509 6.084 28.678 7.531 0.701 6.035 1.481 12.071 1.902 18.134 0.562 4.676 0.82 9.385 1.392 14.055-5.729-3.011-11.656-5.527-17.298-8.743-9.347-5.327-18.063-11.843-26.611-18.351-1.421-8.383-2.312-16.854-3.749-25.241 0.343-4.926-2.472-17.222-3.333-22.901q-3.323-22.654-6.322-45.353l-19.894-148.03q-7.178-48.849-13.353-97.835l-6.352-53.132c-1.04-9.025-2.9-18.861-2.545-27.931z" fill="#440D31"/> <path transform="scale(.97656)" d="m381.06 806.4c9.379 4.393 18.509 6.084 28.678 7.531 0.701 6.035 1.481 12.071 1.902 18.134-11.583-7.115-25.786-11.43-30.58-25.665z" fill="#B52338"/> <path transform="scale(.97656)" d="m397.94 368.46c63.455 13.751 143.74 17.699 207.62 4.699 1.069 3.833-2.93 29.665-3.728 35.416l-0.203 0.241c-0.65 8.98-1.737 17.959-2.712 26.91-1.018 9.711-3.364 23.234-3.086 32.6l0.563 0.497-0.854 0.267c-11.547 1.171-22.951 3.561-34.566 4.587q-9.561 0.847-19.145 1.359-9.584 0.513-19.181 0.69-9.596 0.177-19.193 0.019-9.597-0.159-19.182-0.652t-19.147-1.321q-9.563-0.828-19.09-1.99-9.528-1.162-19.009-2.655-9.481-1.494-18.904-3.318-1.899-16.955-3.343-33.954c-0.674-3.195-0.658-6.891-0.951-10.183q-0.797-9.204-1.93-18.373c-1.181-11.421-1.581-23.63-3.963-34.839z" fill="#FDC78A"/> <path transform="scale(.97656)" d="m401.9 403.3c51.282 13.646 110.48 15.4 163.13 10.447 12.302-1.157 24.362-3.466 36.596-4.93-0.65 8.98-1.737 17.959-2.712 26.91-52.014 8.867-98.073 10.074-150.42 3.779q-12.731-1.56-25.302-4.101c-5.816-1.203-12.07-3.094-17.969-3.523-0.147-0.011-0.294-0.017-0.441-0.026-0.674-3.195-0.658-6.891-0.951-10.183q-0.797-9.204-1.93-18.373z" fill="#FE9B40"/> <path transform="scale(.97656)" d="m404.79 431.86c0.147 9e-3 0.294 0.015 0.441 0.026 5.899 0.429 12.153 2.32 17.969 3.523q12.571 2.541 25.302 4.101c52.352 6.295 98.411 5.088 150.42-3.779-1.018 9.711-3.364 23.234-3.086 32.6l0.563 0.497-0.854 0.267c-11.547 1.171-22.951 3.561-34.566 4.587q-9.561 0.847-19.145 1.359-9.584 0.513-19.181 0.69-9.596 0.177-19.193 0.019-9.597-0.159-19.182-0.652t-19.147-1.321q-9.563-0.828-19.09-1.99-9.528-1.162-19.009-2.655-9.481-1.494-18.904-3.318-1.899-16.955-3.343-33.954z" fill="#93192F"/> <path transform="scale(.97656)" d="m358.89 358.11c12.955 4.06 25.817 7.347 39.049 10.353 2.382 11.209 2.782 23.418 3.963 34.839q1.133 9.169 1.93 18.373c0.293 3.292 0.277 6.988 0.951 10.183q1.444 16.999 3.343 33.954c4.487 53.057 10.589 106.07 16.07 159.04l19.629 192.28c0.834 7.534 1.024 15.681 2.474 23.07 0.441 4.977 0.815 9.971 1.421 14.932 1.543 21.364 4.665 46.094 20.312 62.075-17.205-2.378-34.054-8.356-49.96-15.177-0.205-18.581-3.501-37.371-5.045-55.904-0.572-4.67-0.83-9.379-1.392-14.055-0.421-6.063-1.201-12.099-1.902-18.134l-28.973-254.32q-3.133-27.509-5.842-55.062c-1.516-15.778-2.735-31.752-5.161-47.418q-2.267-17.898-4.158-35.84c-0.896-9.826-2.349-19.647-3.568-29.44-1.383-11.189-2.987-22.455-3.141-33.744z" fill="#FFF2E2"/> <path transform="scale(.97656)" d="m349.97 279.37c5.13 2.101 53.094 17.531 56.528 17.625l0.645-0.473c0.942 0.698 1.725 1.241 2.816 1.701 7.202 1.246 14.37 2.813 21.6 3.865 5.743-2.59 12.019-4.326 18.033-6.195 14.033-4.362 28.217-8.014 42.294-12.175l0.097-0.931 0.404-0.161c2.233 6.298 3.331 12.595 4.148 19.209l0.406 0.1c8.199 1.094 16.532 3.329 24.661 4.959 26.111 5.237 52.522 10.096 79.249 7.59q11.751-1.171 23.324-3.522c16.668-3.334 65.649-15.891 78.434-13.142 9.915 4.643 18.737 10.108 26.652 17.722-32.865 38.419-117.79 54.233-165.9 57.978q-20.182 1.604-40.425 1.852-20.244 0.248-40.459-0.861c-49.819-2.911-140.32-16.684-179.36-49.85-3.087-1.74-5.867-4.769-8.461-7.16 13.983-13.372 33.717-23.214 51.931-29.501 0.231-1.667 0.27-3.368 0.362-5.049l0.395-2.663 2.621-0.918z" fill="#FE9B40"/> <path transform="scale(.97656)" d="m349.97 279.37c5.13 2.101 53.094 17.531 56.528 17.625l0.645-0.473c0.942 0.698 1.725 1.241 2.816 1.701 7.202 1.246 14.37 2.813 21.6 3.865 5.743-2.59 12.019-4.326 18.033-6.195 14.033-4.362 28.217-8.014 42.294-12.175l0.097-0.931 0.404-0.161c2.233 6.298 3.331 12.595 4.148 19.209l0.406 0.1 0.042 9.505c9.092 2.081 24.251 6.087 29.736 14.468 1.238 1.892 1.768 4.01 1.158 6.226-1.374 4.992-7.93 9.5-12.341 11.778-27.621 14.259-75.901 10.79-105.88 5.864-21.458-3.526-42.653-8.95-63.676-14.425-8.89-2.316-35.124-10.611-42.863-10.69-3.087-1.74-5.867-4.769-8.461-7.16 13.983-13.372 33.717-23.214 51.931-29.501 0.231-1.667 0.27-3.368 0.362-5.049l0.395-2.663 2.621-0.918z" fill="#D46230"/> <path transform="scale(.97656)" d="m347.34 321.41c20.764 10.291 39.328 14.531 62.001 17.538 6.011 0.802 14.17 2.031 20.133 1.215l0.096 0.212-0.51 2.182c-3.885 0.091-7.925-0.282-11.804-0.566-15.889-1.166-59.997-8.018-70.055-19.653l0.139-0.928z" fill="#B52338"/> <path transform="scale(.97656)" d="m491.98 282.79 0.404-0.161c2.233 6.298 3.331 12.595 4.148 19.209 0.022 4.1 0.619 9.378-0.488 13.35-0.108 5.867-1.51 12.076-5.856 16.289-11.517 11.162-45.434 11.104-61.134 11.082l0.51-2.182-0.096-0.212c1.021-12.6 2.014-25.435 2.088-38.074 5.743-2.59 12.019-4.326 18.033-6.195 14.033-4.362 28.217-8.014 42.294-12.175l0.097-0.931z" fill="#B52338"/> <path transform="scale(.97656)" d="m491.98 282.79 0.404-0.161c2.233 6.298 3.331 12.595 4.148 19.209 0.022 4.1 0.619 9.378-0.488 13.35-0.108 5.867-1.51 12.076-5.856 16.289-11.517 11.162-45.434 11.104-61.134 11.082l0.51-2.182c14.815 0.189 47.353 0.275 58.035-10.382 6.145-6.129 6.292-18.355 6.523-26.375l-0.016-0.519-0.039-0.863c-0.228-6.255-1.972-12.299-2.184-18.517l0.097-0.931z" fill="#93192F"/> <path transform="scale(.97656)" d="m349.97 279.37c5.13 2.101 53.094 17.531 56.528 17.625l0.645-0.473c0.942 0.698 1.725 1.241 2.816 1.701 7.202 1.246 14.37 2.813 21.6 3.865-0.074 12.639-1.067 25.474-2.088 38.074-5.963 0.816-14.122-0.413-20.133-1.215-22.673-3.007-41.237-7.247-62.001-17.538 0.25-3.444-0.435-7.253-0.731-10.707-0.651-7.58-1.002-15.136-0.014-22.702 0.231-1.667 0.27-3.368 0.362-5.049l0.395-2.663 2.621-0.918z" fill="#FA8F65"/> <path transform="scale(.97656)" d="m409.96 298.22c7.202 1.246 14.37 2.813 21.6 3.865-0.074 12.639-1.067 25.474-2.088 38.074-5.963 0.816-14.122-0.413-20.133-1.215 1.034-13.426 0.654-27.254 0.621-40.724z" fill="#D46230"/> <path transform="scale(.97656)" d="m408.13 465.81q9.423 1.824 18.904 3.318 9.481 1.493 19.009 2.655 9.527 1.162 19.09 1.99 9.562 0.828 19.147 1.321t19.182 0.652q9.597 0.158 19.193-0.019 9.597-0.177 19.181-0.69 9.584-0.512 19.145-1.359c11.615-1.026 23.019-3.416 34.566-4.587l-0.084 0.54c-0.955 6.398-1.292 12.969-1.873 19.412l-3.066 32.592-11.252 118.16c-2.643 26.681-3.551 54.528-12.211 80.097-9.683 28.589-25.828 53.511-50.286 71.709-20.722 15.418-47.118 24.384-72.946 25.527l-19.629-192.28c-5.481-52.97-11.583-105.98-16.07-159.04z" fill="#CC395A"/> <path transform="scale(.97656)" d="m496.1 663.98c1.997 0.174 3.791 0.495 5.064 2.239 0.809 1.107 0.92 2.202 0.697 3.519-0.359 2.123-1.919 3.109-3.6 4.152-1.946-0.147-3.635-0.512-4.909-2.143-0.931-1.193-1.077-2.607-0.709-4.042 0.508-1.982 1.841-2.728 3.457-3.725z" fill="#F08995"/> <path transform="scale(.97656)" d="m458.87 692.97c0.638-0.043 0.973-0.077 1.645-0.067 1.753 0.027 3.232 0.451 4.415 1.829 0.794 0.924 1.164 2.104 0.991 3.317-0.302 2.121-1.71 3.444-3.297 4.709-2.028 0.015-3.733-0.023-5.317-1.504-0.961-0.898-1.455-2.157-1.406-3.468 0.084-2.298 1.36-3.419 2.969-4.816z" fill="#F08995"/> <path transform="scale(.97656)" d="m563.1 529.94c0.533 0 0.616-9e-3 1.21 0.046 1.822 0.17 3.227 0.792 4.258 2.358 0.791 1.201 0.912 2.495 0.675 3.882-0.361 2.111-1.938 3.284-3.595 4.404-0.61-6e-3 -1.303 0.02-1.909-0.091-1.742-0.317-3.303-1.104-4.239-2.674-0.606-1.015-0.763-2.187-0.519-3.335 0.514-2.418 2.14-3.409 4.119-4.59z" fill="#F08995"/> <path transform="scale(.97656)" d="m451.3 519.52c1.079-0.129 2.22-0.297 3.305-0.17 1.919 0.224 3.755 1.319 4.936 2.834 1.069 1.37 1.465 3.054 1.25 4.767-0.357 2.831-2.151 4.34-4.327 5.937-1.057 0.06-2.163 0.142-3.218 0.031-1.942-0.206-3.953-1.601-5.095-3.136-1.125-1.513-1.498-3.107-1.203-4.99 0.392-2.508 2.375-3.987 4.352-5.273z" fill="#F08995"/> <path transform="scale(.97656)" d="m539.67 620.58c3.128-0.179 6-0.417 8.99 0.767q0.671 0.261 1.312 0.589t1.246 0.719q0.604 0.391 1.166 0.841 0.562 0.451 1.075 0.956t0.972 1.059q0.46 0.555 0.86 1.153 0.401 0.598 0.739 1.234 0.337 0.636 0.609 1.303 0.271 0.672 0.476 1.368 0.204 0.696 0.339 1.408t0.2 1.434q0.064 0.723 0.058 1.448-7e-3 0.725-0.084 1.445-0.078 0.721-0.226 1.431-0.147 0.71-0.364 1.402t-0.5 1.359c-1.859 4.307-5.368 6.739-9.591 8.427-2.76 0.122-5.31 0.242-7.965-0.718q-0.691-0.245-1.353-0.558-0.663-0.312-1.292-0.688-0.629-0.377-1.217-0.813-0.589-0.437-1.131-0.93t-1.033-1.037-0.926-1.133q-0.435-0.59-0.809-1.22-0.375-0.63-0.685-1.294c-1.711-3.686-1.956-8.066-0.345-11.832 1.864-4.358 5.23-6.457 9.479-8.12z" fill="#F08995"/> <path transform="scale(.97656)" d="m476.39 731.09c3.154-0.243 5.967-0.224 8.99 0.833q0.412 0.142 0.815 0.304 0.404 0.162 0.799 0.345t0.78 0.386 0.759 0.425q0.374 0.223 0.737 0.464 0.362 0.241 0.711 0.501 0.35 0.259 0.686 0.536 0.335 0.277 0.656 0.571t0.627 0.604q0.305 0.31 0.595 0.635 0.289 0.325 0.561 0.665 0.272 0.339 0.527 0.692 0.254 0.354 0.49 0.719 0.236 0.366 0.453 0.743 0.217 0.378 0.414 0.766 0.198 0.387 0.375 0.785 0.181 0.397 0.341 0.804 0.161 0.406 0.299 0.821 0.139 0.414 0.256 0.835 0.116 0.421 0.211 0.847 0.094 0.427 0.166 0.858 0.072 0.43 0.122 0.865 0.049 0.434 0.075 0.87 0.027 0.436 0.031 0.872 3e-3 0.437-0.016 0.874-0.019 0.436-0.062 0.871-0.042 0.435-0.107 0.867t-0.152 0.86-0.197 0.851q-0.11 0.422-0.242 0.839-0.131 0.417-0.285 0.826-0.153 0.409-0.328 0.809c-2.432 5.595-6.829 8.579-12.334 10.614-4.175 0.595-8.178 0.326-11.962-1.68q-0.782-0.423-1.517-0.924-0.735-0.5-1.416-1.072t-1.301-1.209q-0.619-0.638-1.171-1.335t-1.031-1.447q-0.479-0.749-0.88-1.543-0.4-0.793-0.719-1.624-0.318-0.83-0.551-1.688c-1.265-4.515-0.705-9.534 1.702-13.578 2.76-4.637 7.01-6.825 12.093-8.057z" fill="#F08995"/> <path transform="scale(.97656)" d="m476.94 551.64c7.491-0.525 14.141 0.875 20.288 5.308 6.178 4.455 10.045 10.754 11.258 18.269q0.116 0.712 0.196 1.429t0.125 1.438q0.044 0.72 0.053 1.441 8e-3 0.722-0.019 1.443t-0.091 1.44q-0.063 0.719-0.162 1.434-0.099 0.714-0.233 1.423t-0.304 1.411q-0.169 0.701-0.373 1.393-0.204 0.693-0.443 1.374-0.238 0.681-0.51 1.349-0.272 0.669-0.576 1.323-0.305 0.654-0.642 1.292t-0.705 1.259q-0.369 0.62-0.767 1.222-0.399 0.601-0.827 1.182c-4.727 6.375-11.214 9.625-18.919 10.781q-1.216 0.123-2.439 0.145-1.222 0.021-2.442-0.058-1.22-0.08-2.429-0.26t-2.399-0.459q-1.19-0.28-2.353-0.656-1.163-0.377-2.291-0.849t-2.212-1.035q-1.085-0.564-2.12-1.215-0.578-0.367-1.138-0.761-0.559-0.394-1.099-0.816-0.54-0.421-1.058-0.868t-1.015-0.919q-0.496-0.472-0.968-0.967-0.472-0.496-0.92-1.014-0.447-0.518-0.869-1.057t-0.817-1.098q-0.395-0.56-0.762-1.137-0.367-0.578-0.705-1.173-0.339-0.595-0.648-1.206t-0.588-1.237q-0.278-0.625-0.526-1.263t-0.465-1.287q-0.216-0.65-0.4-1.309-0.185-0.659-0.337-1.327c-1.696-7.512-0.549-15.632 3.78-22.086 4.722-7.038 11.779-10.675 19.871-12.299z" fill="#E76880"/> <path transform="scale(.97656)" d="m720.19 332.56c-1.161 10.398-2.797 20.731-4.063 31.113-1.131 9.043-1.587 18.868-3.472 27.737l-37.114 284.65-12.13 88.976-3.998 29.036c-0.978 7.195-2.326 14.737-2.205 22.018-12.668 13.371-44.299 27.334-62.134 32.992q-2.293 17.291-4.209 34.627c-0.91 7.946-2.051 16.029-2.427 24.014-43.267 13.465-75.42 15.498-120.4 9.486-15.647-15.981-18.769-40.711-20.312-62.075-0.606-4.961-0.98-9.955-1.421-14.932-1.45-7.389-1.64-15.536-2.474-23.07 25.828-1.143 52.224-10.109 72.946-25.527 24.458-18.198 40.603-43.12 50.286-71.709 8.66-25.569 9.568-53.416 12.211-80.097l11.252-118.16 3.066-32.592c0.581-6.443 0.918-13.014 1.873-19.412l0.084-0.54 0.854-0.267-0.563-0.497c-0.278-9.366 2.068-22.889 3.086-32.6 0.975-8.951 2.062-17.93 2.712-26.91l0.203-0.241c0.798-5.751 4.797-31.583 3.728-35.416 18.451-2.276 37.291-7.187 54.894-13.082 20.756-6.838 41.559-15.19 59.727-27.519z" fill="#440D31"/> <path transform="scale(.97656)" d="m720.19 332.56c-1.161 10.398-2.797 20.731-4.063 31.113-1.131 9.043-1.587 18.868-3.472 27.737-12.872 10.082-44.629 25.293-60.571 29.742 1.428-9.035 2.826-18.159 3.654-27.268q2.827-16.838 4.725-33.805c20.756-6.838 41.559-15.19 59.727-27.519z" fill="#AD4C35"/> <path transform="scale(.97656)" d="m655.74 393.88c15.561-5.806 31.844-12.498 46.294-20.656 4.813-2.717 8.919-6.605 13.719-9.346 0.125-0.071 0.251-0.14 0.376-0.209-1.131 9.043-1.587 18.868-3.472 27.737-12.872 10.082-44.629 25.293-60.571 29.742 1.428-9.035 2.826-18.159 3.654-27.268z" fill="#93192F"/> <path transform="scale(.97656)" d="m605.57 373.16c18.451-2.276 37.291-7.187 54.894-13.082q-1.898 16.967-4.725 33.805c-0.828 9.109-2.226 18.233-3.654 27.268l-0.115 0.238c-1.178 6.975-5.497 29.151-5.008 35.008l-0.961 0.3c-16.037 5.824-32.885 8.927-49.597 12.127l-0.563-0.497c-0.278-9.366 2.068-22.889 3.086-32.6 0.975-8.951 2.062-17.93 2.712-26.91l0.203-0.241c0.798-5.751 4.797-31.583 3.728-35.416z" fill="#A35F54"/> <path transform="scale(.97656)" d="m655.74 393.88c-0.828 9.109-2.226 18.233-3.654 27.268l-0.115 0.238c-17.65 5.713-35.006 10.181-53.043 14.338 0.975-8.951 2.062-17.93 2.712-26.91l0.203-0.241c18.4-4.023 36.061-8.638 53.897-14.693z" fill="#AD4C35"/> <path transform="scale(.97656)" d="m598.92 435.73c18.037-4.157 35.393-8.625 53.043-14.338-1.178 6.975-5.497 29.151-5.008 35.008l-0.961 0.3c-16.037 5.824-32.885 8.927-49.597 12.127l-0.563-0.497c-0.278-9.366 2.068-22.889 3.086-32.6z" fill="#6B0A25"/> <path transform="scale(.97656)" d="m595.07 849.08q-2.293 17.291-4.209 34.627c-0.91 7.946-2.051 16.029-2.427 24.014-43.267 13.465-75.42 15.498-120.4 9.486-15.647-15.981-18.769-40.711-20.312-62.075 47.552 11.947 100.95 9.937 147.35-6.052z" fill="#89C3BD"/> <path transform="scale(.97656)" d="m692.1 437.52q-5.889 39.727-11.006 79.561l-22.907 173.62q-4.783 35.495-10.015 70.927-2.282 14.558-4.331 29.151c-0.86 6.138-2.034 12.477-1.928 18.688-13.679 8.467-30.322 19.88-45.99 23.915 0.343-9.035 2.452-18.748 3.639-27.759l8.034-61.431 26.679-203.22 8.078-57.664c1.132-7.831 3.85-19.002 3.643-26.611l0.961-0.3c15.716-4.798 30.382-11.711 45.143-18.876z" fill="#6B0A25"/> <path transform="scale(.97656)" d="m646 456.7c0.207 7.609-2.511 18.78-3.643 26.611l-8.078 57.664-26.679 203.22-8.034 61.431c-1.187 9.011-3.296 18.724-3.639 27.759-46.858 17.027-101.37 18.891-149.62 6.814-1.45-7.389-1.64-15.536-2.474-23.07 25.828-1.143 52.224-10.109 72.946-25.527 24.458-18.198 40.603-43.12 50.286-71.709 8.66-25.569 9.568-53.416 12.211-80.097l11.252-118.16 3.066-32.592c0.581-6.443 0.918-13.014 1.873-19.412l0.084-0.54 0.854-0.267c16.712-3.2 33.56-6.303 49.597-12.127z" fill="#93192F"/> </svg>