<?xml version='1.0' encoding='utf-8'?>
<svg xmlns="http://www.w3.org/2000/svg" enable-background="new 0 0 500 500" version="1.1" viewBox="0 0 500 500"> <circle cx="250" cy="250" r="240.4" fill="#FFCC5F"/> <path d="m250 500c-66.8 0-129.6-26-176.8-73.2s-73.2-110-73.2-176.8 26-129.6 73.2-176.8 110-73.2 176.8-73.2 129.6 26 176.8 73.2 73.2 110 73.2 176.8-26 129.6-73.2 176.8-110 73.2-176.8 73.2zm0-480.8c-127.2 0-230.8 103.6-230.8 230.8s103.5 230.8 230.8 230.8c127.2 0 230.8-103.5 230.8-230.8 0-127.2-103.6-230.8-230.8-230.8z" fill="#5F181E"/> <path d="m397.6 411.4c-3.2 0-6.1-1.2-8.3-3.5-2.2-2.2-3.5-5.2-3.5-8.3 0-3.2 1.2-6.1 3.5-8.3 37.7-37.7 58.5-87.9 58.5-141.2 0-53.4-20.8-103.5-58.5-141.2-2.2-2.2-3.5-5.2-3.5-8.3 0-3.2 1.2-6.1 3.5-8.4 2.2-2.2 5.2-3.5 8.3-3.5 3.2 0 6.1 1.2 8.4 3.5 42.2 42.2 65.4 98.3 65.4 157.9 0 59.7-23.2 115.7-65.4 157.9-2.3 2.2-5.3 3.4-8.4 3.4z" fill="#fff" opacity=".38"/> <path d="m210.4 229.1c-5.3 0-9.6-4.3-9.6-9.6 0-26.7-21.7-48.5-48.5-48.5-26.7 0-48.5 21.7-48.5 48.5 0 5.3-4.3 9.6-9.6 9.6s-9.6-4.3-9.6-9.6c0-37.3 30.4-67.7 67.7-67.7s67.7 30.4 67.7 67.7c0 5.3-4.3 9.6-9.6 9.6z" fill="#5F181E"/> <path d="m355.7 290.5c0 29.8-12.3 56.7-32.1 75.8-19 18.5-45 29.8-73.5 29.8s-54.5-11.4-73.5-29.8c-19.8-19.2-32.1-46.1-32.1-75.8h211.2z" fill="#fff"/> <path d="m250 405.8c-30.1 0-58.6-11.5-80.2-32.5-22.6-21.9-35-51.3-35-82.7 0-5.3 4.3-9.6 9.6-9.6h211.3c5.3 0 9.6 4.3 9.6 9.6 0 31.5-12.4 60.9-35 82.7-21.7 20.9-50.2 32.5-80.3 32.5zm-95.6-105.7c2.2 22.5 12.2 43.3 28.7 59.3 18 17.5 41.8 27.1 66.9 27.1s48.8-9.6 66.9-27.1c16.5-16 26.5-36.8 28.7-59.3h-191.2z" fill="#5F181E"/> <path d="m323.5 366.3c-19 18.5-45 29.8-73.5 29.8s-54.5-11.4-73.5-29.8c19-18.5 45-29.8 73.5-29.8s54.5 11.4 73.5 29.8z" fill="#FF3A3B"/> <path d="m250 405.8c-30.1 0-58.6-11.5-80.2-32.5-1.9-1.8-2.9-4.3-2.9-6.9s1.1-5.1 2.9-6.9c21.6-21 50.1-32.5 80.2-32.5s58.6 11.5 80.2 32.5c1.9 1.8 2.9 4.3 2.9 6.9s-1.1 5.1-2.9 6.9c-21.6 20.9-50.1 32.5-80.2 32.5zm-58.9-39.5c16.8 13.1 37.4 20.2 58.9 20.2 21.6 0 42.1-7.1 58.9-20.2-16.8-13.1-37.4-20.2-58.9-20.2-21.6 0.1-42.1 7.2-58.9 20.2z" fill="#5F181E"/> <path d="m402.9 229.1c-5.3 0-9.6-4.3-9.6-9.6 0-26.7-21.7-48.5-48.5-48.5-26.7 0-48.5 21.7-48.5 48.5 0 5.3-4.3 9.6-9.6 9.6s-9.6-4.3-9.6-9.6c0-37.3 30.4-67.7 67.7-67.7s67.7 30.4 67.7 67.7c0 5.3-4.3 9.6-9.6 9.6z" fill="#5F181E"/> </svg>